/* XPM */
static char *_3ed88b6e6184f7aeb0acfeccd9956deuhnnjeqmbQyL70V1[] = {
/* columns rows colors chars-per-pixel */
"32 32 20 1 ",
"  c None",
". c #323234",
"X c #745C1F",
"o c #534721",
"O c #545456",
"+ c #705654",
"@ c #7A6843",
"# c #767678",
"$ c #8F7772",
"% c #A88E35",
"& c #C4B85C",
"* c #354CA1",
"= c #3560BD",
"- c #3576DC",
"; c #979799",
": c #B7A099",
"> c #B7B7BB",
", c #DDBD9C",
"< c #D5D196",
"1 c #D9D9DD",
/* pixels */
"           XXX%%%%XX  X         ",
"      XXXXX%%&&&&&&&XX&X        ",
"     X%%&&&&&&&&<<<&&%X&X       ",
"      X%%%%%%%%&&&<<&&X<X       ",
"     XXXX%%&&&&&%%&&&&X&%XX     ",
"    X%%&&&&&&&<<&&%&&%%%&&%X    ",
"     X%%%&&&&&&&<&&%%&%&%&&%X   ",
"     XXX%%%%%%&&&&%%&<&%&%X&X   ",
"    X%%%%%%&&&&&&%%%&&<%X&%X%X  ",
"     X%&&&&&&<<&%%%&%&&&X&&XX   ",
"      XX%&&&&&%%%&&&&%&&X%&X    ",
"      X%XX%%%%&&&&%&&&%&X%%&X   ",
"      @,%%%%&&&&&%&&&&%X%,X%X   ",
"      @,%%%&&&&%%&&%&&%%%,@X    ",
"       @%%%%%%%%&&%%&%%%%@      ",
"        X%X%%%%%&%%%%%X%X       ",
"        .XX%%%%%%%%%%%XX.       ",
"       .OOX%X%%%%%%%X%XOO.      ",
"      .O;>;X.X%X%X%X.X;>;O.     ",
"      .#;1>#.#X;X;X#.#>1;#.     ",
"       .###.#>11111>#.###.      ",
"      .OO..#;>>111>>;#..OO.     ",
"      .;OO.#;;>>>>>;;#.OO;.     ",
"     .;>;..+O##;;;##O+..;>;.    ",
"     o$:#..O+++++++++O..#:$o    ",
"     o++o.O#;=--=--=;#O.o++o    ",
"      oo .O;#=*****=#;O. oo     ",
"          .O*-=...=-*O.         ",
"           .>=;. .;=>.          ",
"           .#;#. .#;#.          ",
"           .;;#. .#;;.          ",
"            ...   ...           "
};
