/* XPM */
static char *char_right11630865934[] = {
/* columns rows colors chars-per-pixel */
"32 32 28 1 ",
"  c None",
". c #2E1E22",
"X c #323234",
"o c #5C2E00",
"O c #745C1F",
"+ c #534721",
"@ c #545456",
"# c #705654",
"$ c #7A6843",
"% c #767678",
"& c #964F00",
"* c #8F7772",
"= c #A88E35",
"- c #C4B85C",
"; c #CA9E73",
": c #354CA1",
"> c #928A8C",
", c #979799",
"< c #B7A099",
"1 c #B7B7BB",
"2 c #DDBD9C",
"3 c #D5D196",
"4 c #EEDAB3",
"5 c gray85",
"6 c #D9D9DD",
"7 c #FDF0C5",
"8 c gray95",
"9 c white",
/* pixels */
"                                ",
"             OO====OO           ",
"           OO==------OO O       ",
"         OO==-----333-=O=O      ",
"        OO=---------33-=OO      ",
"       OO=======---==---=OO     ",
"      O=OOOOOO=------=-==--O    ",
"     O=O=--------333--=O-O=-O   ",
"     O==O===----------=O--O=O   ",
"    O==O=OOOO====-3--=2==-=OO   ",
"     OO===O=----33--=442=-=O    ",
"      O--==O==----==4444$==O    ",
"     O--==-=OOOO==777444$=O     ",
"     O--=---$$===7+++744$O      ",
"     O-==--$74$=775.6774$       ",
"     O=O=--$7;4=778.>774$       ",
"      OO=-=$4;7=779oo772$       ",
"       OO===$247777&&74;$       ",
"        O===O2247777742$        ",
"         O=O;;2244422;$         ",
"          O XX$$$$$$$$          ",
"           X@%%,,,16%X          ",
"          X@111%1661,%X         ",
"          X%,16@,,,%@@X         ",
"         +%,%@@X@@@@%@X         ",
"        +#*,1,X#####%%X         ",
"        +#<<#X:,6,:,@X          ",
"         +##+%X%1%:%@X          ",
"          ++%@@X@,16%X          ",
"           X%%X X@@%11X         ",
"            XXX  X%,11X         ",
"                  XXXX          "
};
