/* XPM */
static char *_b87efa27b0643ec9456b689f7c406be4X5BeOD8NvYl5kQo[] = {
/* columns rows colors chars-per-pixel */
"32 32 20 1 ",
"  c None",
". c #323234",
"X c #745C1F",
"o c #534721",
"O c #545456",
"+ c #705654",
"@ c #7A6843",
"# c #767678",
"$ c #8F7772",
"% c #A88E35",
"& c #C4B85C",
"* c #354CA1",
"= c #3560BD",
"- c #3576DC",
"; c #979799",
": c #B7A099",
"> c #B7B7BB",
", c #DDBD9C",
"< c #D5D196",
"1 c #D9D9DD",
/* pixels */
"                                ",
"           XXX%%%%XX  X         ",
"      XXXXX%%&&&&&&&XX&X        ",
"     X%%&&&&&&&&<<<&&%X&X       ",
"      X%%%%%%%%&&&<<&&X<X       ",
"     XXXX%%&&&&&%%&&&&X&%XX     ",
"    X%%&&&&&&&<<&&%&&%%%&&%X    ",
"     X%%%&&&&&&&<&&%%&%&%&&%X   ",
"     XXX%%%%%%&&&&%%&<&%&%X&X   ",
"    X%%%%%%&&&&&&%%%&&<%X&%X%X  ",
"     X%&&&&&&<<&%%%&%&&&X&&XX   ",
"      XX%&&&&&%%%&&&&%&&X%&X    ",
"      X%XX%%%%&&&&%&&&%&X%%&X   ",
"      @,%%%%&&&&&%&&&&%X%,X%X   ",
"      @,%%%&&&&%%&&%&&%%%,@X    ",
"       @%%%%%%%%&&%%&%%%%@      ",
"        X%X%%%%%&%%%%%X%X       ",
"        .XX%%%%%%%%%%%XX.       ",
"       .O#X%X%%%%%%%X%X#O.      ",
"      .O>1;X.X%X%X%X.X>>;O.     ",
"      .#>>>O.#X;X;X#.;11>#.     ",
"       .##O.#>11111>#.###O.     ",
"      .#;O.#;>>111>>;#.OO>;.    ",
"      .#;;.#;;>>>>>;;#.O;>:$o   ",
"       o$+.+O##;;;##O+..#:::o   ",
"        oo.O+++++++++O. o$$+o   ",
"         .O#;=--=--=;#O. ooo    ",
"         .O;#-=****=#;O.        ",
"          .O=--...*;#O.         ",
"           .;=>. .###.          ",
"           .#>;O  ...           ",
"           .;;;O                "
};
