/* XPM */
static char *char_left11630865933[] = {
/* columns rows colors chars-per-pixel */
"32 32 28 1 ",
"  c None",
". c #2E1E22",
"X c #323234",
"o c #5C2E00",
"O c #745C1F",
"+ c #534721",
"@ c #545456",
"# c #705654",
"$ c #7A6843",
"% c #767678",
"& c #964F00",
"* c #8F7772",
"= c #A88E35",
"- c #C4B85C",
"; c #CA9E73",
": c #354CA1",
"> c #928A8C",
", c #979799",
"< c #B7A099",
"1 c #B7B7BB",
"2 c #DDBD9C",
"3 c #D5D196",
"4 c #EEDAB3",
"5 c gray85",
"6 c #D9D9DD",
"7 c #FDF0C5",
"8 c gray95",
"9 c white",
/* pixels */
"                                ",
"            OO====OO            ",
"        O OO------==OO          ",
"       O=O=-333-----==OO        ",
"       OO=-33---------=OO       ",
"      OO=---==---=======OO      ",
"     O--==-=------=OOOOOO=O     ",
"    O-=O-O=--333--------=O=O    ",
"    O=O--O=----------===O==O    ",
"    OO=-==2=--3-====OOOO=O==O   ",
"     O=-=244=--33----=O===OO    ",
"     O==$4444==----==O==--O     ",
"      O=$444777==OOOO=-==--O    ",
"       O$447+++7===$$---=--O    ",
"        $4776.577=$47$--==-O    ",
"        $477>.877=4;7$--=O=O    ",
"        $277oo977=7;4$=-=OO     ",
"        $;47&&777742$===OO      ",
"         $2477777422O===O       ",
"          $;2244422;;O=O        ",
"           $$$$$$$$XX O         ",
"           X%61,,,@%@X          ",
"          X%,1661%661@X         ",
"          X@@%,,%@11,%X         ",
"          X@%@@X,@@%%X          ",
"          X%%#X,1,%@X           ",
"           X@,+<<%%XX           ",
"           X@%+#*#X:X           ",
"          X%X@++++%%X           ",
"          X%%%XX%,11%X          ",
"           XXX  X111,X          ",
"                 XXXX           "
};
