/* XPM */
static char *ice_cream1631465975[] = {
/* columns rows colors chars-per-pixel */
"32 32 19 1 ",
"  c None",
". c #570616",
"X c #5A2314",
"o c #763C1C",
"O c #851B13",
"+ c #BF1929",
"@ c #E43B00",
"# c #AB5E20",
"$ c #D76E35",
"% c #FF5745",
"& c #D7983E",
"* c #FF9E47",
"= c #EABC6B",
"- c #FCC458",
"; c #FFD870",
": c #FFE777",
"> c #FF7D80",
", c #FFBBC1",
"< c #FFF2CA",
/* pixels */
"                        +...    ",
"                       +. ..    ",
"                      +.        ",
"                      +         ",
"                    @+.OO;;;    ",
"                   @,%+O@O<<=   ",
"                 *;@%,>%@+=<=   ",
"                $;<+%%@@+%*;*   ",
"             *$$*<<O++.+%O*;*   ",
"            &=$*;;<;OO...**$    ",
"            &;**;;<<;=***$$     ",
"           #-;<*=;;<<<;====*    ",
"          ##-<<=*<;<<<;;<<;*    ",
"          &#-<<;=;<;<<;<<;;$    ",
"         &-#:<<<;=<<<==*$$*$    ",
"         -:&:-<<<;;<<<<<;$$$    ",
"        &::&-:;<<<;;<<<<;=**    ",
"        #:::&:#;<<<;;;====*     ",
"        #:--&o-#&;;<<;;;=$o     ",
"       ##-:-:&o--#&&;<<;$#      ",
"       ##:&::-#o#--#oo&&#o      ",
"      &:#&#&-&&&oo#&&#ooo       ",
"     &::&#&-&&##&#o&ooo         ",
"    &:::&o#&&##&&--#oo          ",
"   #-::-:&o#&&---#oo            ",
"   #:--:&-#XXooooo              ",
"  #&:--:-###oXX                 ",
"  #--::--&&#o                   ",
"  #&-:&-&&#o                    ",
"   #&#--&#o                     ",
"   o##&#oo                      ",
"     ooo                        "
};
