/* XPM */
static char *_bc8be7995254a93b5156f3c68a048810wirQWRUOerAKao1[] = {
/* columns rows colors chars-per-pixel */
"32 32 126 2 ",
"   c None",
".  c #2C2D25",
"X  c #2F3228",
"o  c #32352B",
"O  c #35392E",
"+  c #3A3D32",
"@  c #3D4135",
"#  c #424637",
"$  c #434639",
"%  c #45493C",
"&  c #4A4F40",
"*  c #4E5343",
"=  c #515646",
"-  c #535946",
";  c #535748",
":  c #565A4A",
">  c #595E4D",
",  c #5C614F",
"<  c #5E6351",
"1  c #616653",
"2  c #646956",
"3  c #666C58",
"4  c #696E5A",
"5  c #6C725D",
"6  c #6F7561",
"7  c #717762",
"8  c #747A64",
"9  c #787F67",
"0  c #777C68",
"q  c #797F6A",
"w  c #7C826C",
"e  c #7F8571",
"r  c #818672",
"t  c #848A75",
"y  c #878C79",
"u  c #898E7A",
"i  c #8B917E",
"p  c #8E9381",
"a  c #929786",
"s  c #919785",
"d  c #919685",
"f  c #939887",
"g  c #949987",
"h  c #949987",
"j  c #949988",
"k  c #949989",
"l  c #959989",
"z  c #949A88",
"x  c #959A89",
"c  c #969A89",
"v  c #969B89",
"b  c #969B8A",
"n  c #979B8A",
"m  c #979C8B",
"M  c #969B89",
"N  c #989D8D",
"B  c #999D8D",
"V  c #999E8E",
"C  c #9A9E8E",
"Z  c #9A9F8E",
"A  c #9A9F8F",
"S  c #9B9F90",
"D  c #9CA091",
"F  c #9CA191",
"G  c #9DA191",
"H  c #9EA291",
"J  c #9DA192",
"K  c #9DA292",
"L  c #9EA293",
"P  c #9FA394",
"I  c #9EA293",
"U  c #A0A496",
"Y  c #A0A596",
"T  c #A1A597",
"R  c #A1A597",
"E  c #A1A698",
"W  c #A2A698",
"Q  c #A3A699",
"!  c #A3A799",
"~  c #A2A698",
"^  c #A4A89A",
"/  c #A4A89B",
"(  c #A5A99C",
")  c #A6AA9C",
"_  c #A6AA9D",
"`  c #A7AD9E",
"'  c #A5A99C",
"]  c #A9ACA0",
"[  c #ABAEA2",
"{  c #ACAFA3",
"}  c #ABAFA2",
"|  c #ACB0A4",
" . c #ADB0A5",
".. c #AEB1A6",
"X. c #AEB2A6",
"o. c #AFB2A7",
"O. c #ACB0A4",
"+. c #B0B3A8",
"@. c #B0B3A9",
"#. c #B0B4A8",
"$. c #B1B4A9",
"%. c #B2B4AA",
"&. c #B3B6AC",
"*. c #B4B6AC",
"=. c #B4B7AD",
"-. c #B2B6AB",
";. c #B5B8AE",
":. c #B6B8AF",
">. c #B6B9AF",
",. c #B6B8AF",
"<. c #B6B9B0",
"1. c #B7B9B0",
"2. c #B7BAB1",
"3. c #B8BAB1",
"4. c #B8BBB2",
"5. c #B9BBB2",
"6. c #B9BBB3",
"7. c #BABCB4",
"8. c #BABDB5",
"9. c #BBBDB5",
"0. c #BBBEB5",
"q. c #B9BCB3",
"w. c #BDC0B8",
"e. c #BEC1B9",
"r. c #C2C4BD",
"t. c #C3C5BE",
/* pixels */
"                            4 > = =                             ",
"                        8 4 1 t l 0 , *                         ",
"                      6 w i W ;.7.n w , *                       ",
"                      3 m =.<.7...g y 4 * *                     ",
"                    : 8 S J S y w 0 w 2 = : - = *               ",
"                6 > * 8 u d 0 w 5 = > : 1 w w 2 > @             ",
"            i ! S p 0 3 t p a W f 2 * = 0 y t 3 1 *             ",
"            ` r.e.{ H w 8 d H l l w : , w i 8 < , %             ",
"          8 W 6.+.W f 4 6 [ { [ ^ y > , y 8 2 4 , * @           ",
"          : 8 d 0 7 w , e <.<.6.^ r 1 > 0 2 2 5 : * * @ @       ",
"        , 5 w w 4 5 8 > t H $._ m 0 1 > 5 2 3 2 = : = = * o     ",
"      8 H Y y w N l t 2 t t N y w 4 > - : < , = < < : 5 : &     ",
"      H $.! y l +.^ r < 8 8 e w , < : = * : = > 5 , < 1 = =     ",
"    9 ^ 9.Y u ` &.p 2 > > 1 5 4 = > = * * = < 5 7 , 1 5 5 : o   ",
"    w _ 7.y i ;.W 8 7 k u < > 4 , 5 , * * = : , 3 > < 5 3 , #   ",
"    t _ H e W O.N 4 W t.7.J p { Y N w 1 : 5 5 2 : = < 5 , , *   ",
"    r t t e W p t t 6.w.$.J Y <.;.{ t , 9 y i r 5 - = 1 : : :   ",
"    y 8 3 u J r 4 t @.<.^ l $.6.6.o.d : y y i r 5 = ; = ; > :   ",
"    4 = 2 H H 2 2 r y d w t O.7.o.i 0 = 8 w w 5 : ; > : : : : . ",
"      % q l p > 5 w t 2 1 5 N W ^ 9 2 : 2 3 5 , : - 2 2 = = =   ",
"        w e 8 < t H [ 8 > 2 t d t , : < 3 0 5 - : ; < 2 * @     ",
"        4 < , t ` 6...5 , q t 8 8 2 1 , 5 w 7 : < > : < * X     ",
"          # , H 5.O.N 8 < P n w 8 : , - 4 9 2 < 2 , = : =       ",
"            1 I I n y 5 5 $.W f i 5 4 = 1 9 2 < , : * = :       ",
"            2 l p e w 5 p <.7.^ p e 7 = : 4 2 > = * % O         ",
"            8 y q 6 6 < J <.&.W y w 5 = * 1 2 > # + X           ",
"              9 3 1 < 6 _ &.O.f w 8 4 * * > : #                 ",
"                ; : : e D J m y 4 5 4 * & : *                   ",
"                  =   < r y y 0 : 3 3 % % * +                   ",
"                        * 8 w 5 = : = o                         ",
"                            , : % * o                           ",
"                                                                "
};
