/* XPM */
static char *tile003_removebg_preview1630866153[] = {
/* columns rows colors chars-per-pixel */
"32 32 57 1 ",
"  c None",
". c #4F5344",
"X c #515646",
"o c #535847",
"O c #535749",
"+ c #565A4A",
"@ c #595E4D",
"# c #5C614F",
"$ c #5E6351",
"% c #606653",
"& c #646956",
"* c #626658",
"= c #666C59",
"- c #696E5B",
"; c #6C725D",
": c #676B60",
"> c #6A6D64",
", c #6F7462",
"< c #717663",
"1 c #747A64",
"2 c #787F67",
"3 c #73766C",
"4 c #777C69",
"5 c #797F6A",
"6 c #797C72",
"7 c #7C826C",
"8 c #7E8472",
"9 c #7E827A",
"0 c #818772",
"q c #848A75",
"w c #868B7A",
"e c #898E7A",
"r c #8B917D",
"t c #858681",
"y c #888A84",
"u c #8E9381",
"i c #919785",
"p c #949987",
"a c #92948C",
"s c #969B8A",
"d c #999E8E",
"f c #939590",
"g c #969891",
"h c #9A9D94",
"j c #9DA292",
"k c #9DA099",
"l c #A1A596",
"z c #A3A699",
"x c #A5A99B",
"c c #ABAEA2",
"v c #ADB1A5",
"b c #B2B5AA",
"n c #B6B9AE",
"m c #B7B9B0",
"M c #B9BCB3",
"N c #BEC1B9",
"B c #C3C5BE",
/* pixels */
"              k<4h              ",
"            s-&0s4#@            ",
"           c7eznMs7#o           ",
"           <dnnMcpe-.@          ",
"          *1djdw817=Xo@o        ",
"        j#X<ei27-O@o%07&@g      ",
"      nzjr4-qrizs&.o2eq=%$      ",
"      vBMbh71pjss7+@7e<%#.      ",
"     zlMbzp-;vvcxw##r1&=@.:     ",
"     @1i1<7#8nmMz0$@2%-;+..>    ",
"    &;77-;<#qjnzd7%@-%-&.OOO.   ",
"   djle7dsq&qqde7&#o+##X$$@=o   ",
"   lbzepvz0$<277##@..oX#;#$%oo  ",
"  mzNlrxnu&@#%;-X+X..X#;,#%;;+  ",
"  vxMernz<<sw$@-#-#...X#-#$;=#  ",
"  jxj7lvd-zBMjrvld7%+;;-+.$;$@$ ",
"  uq00lrwqmBbjlmmcq#7qe0;+.%#++ ",
"  e<-elq=qbnldbmNvr#eer0;....#@ ",
"  u#&jj&&0er7qvMvr1o177;#+##X@+ ",
"   ,5pu@;7w&$;dlz2%#&&;#+.%&X$  ",
"    88<%qjc1@%wiq###=7-+oO$&.9  ",
"    d;#qxMv;@7q11&$#=71+%@o$.t  ",
"     6#jNcd1#ls01@#o-7&#&#X@o   ",
"      -jjse;;blpr;=X$7%##@$*6   ",
"      8pe87;rmMzu7<XO-=#@$3a    ",
"      ce7,<%knblw7;XX%%%3yf     ",
"       z-%$,xbvi72-X.@o6        ",
"        t%$wjjsr=;=.O@+         ",
"         x kprq5+&-X::6         ",
"            he7-X@*w            ",
"              9%**f             ",
"                                "
};
